<svg width="525" height="401" viewBox="0 0 525 401" fill="none" xmlns="http://www.w3.org/2000/svg">
<path d="M192.265 139.923H138.792C135.965 139.923 133.673 142.215 133.673 145.042V332.159C133.673 334.986 135.965 337.278 138.792 337.278H192.265C195.092 337.278 197.385 334.986 197.385 332.159V145.042C197.385 142.215 195.092 139.923 192.265 139.923Z" fill="#2C282C"/>
<path d="M334.83 163.116C337.702 169.608 341.509 175.645 346.129 181.035C346.564 181.539 347.007 182.034 347.459 182.521C349.205 184.393 351.084 186.135 353.083 187.735C353.561 188.126 354.056 188.499 354.543 188.864C360.358 193.157 366.242 195.356 371.709 195.356C372.214 195.356 372.709 195.356 373.204 195.295L373.743 195.251H373.813C374.126 195.251 374.43 195.182 374.743 195.13C374.891 195.13 375.03 195.078 375.178 195.051L375.725 194.947L376.168 194.843L376.699 194.721L377.055 194.608L377.663 194.435L378.029 194.304C378.22 194.235 378.42 194.174 378.611 194.096L378.767 194.026C379.028 193.931 379.28 193.826 379.541 193.705C380.002 193.496 380.454 193.27 380.897 193.035L381.036 192.949C381.427 192.723 381.809 192.497 382.183 192.253C383.017 191.704 383.805 191.088 384.539 190.411C384.591 190.411 384.634 190.316 384.678 190.272C385.757 189.26 386.724 188.136 387.564 186.918L387.711 186.683C387.955 186.318 388.198 185.953 388.424 185.571C388.456 185.518 388.485 185.463 388.511 185.406C388.754 184.989 388.989 184.537 389.206 184.137C389.267 184.024 389.311 183.911 389.363 183.807C389.554 183.416 389.745 183.025 389.919 182.616C390.015 182.399 390.093 182.164 390.18 181.939C390.267 181.713 390.432 181.33 390.554 181.009L390.762 180.357C391.672 177.587 392.256 174.72 392.501 171.815C393.37 162.074 391.171 150.751 386.303 139.941C375.656 116.278 356.012 102.827 341.575 109.318C334.178 112.646 329.571 120.423 328.606 131.234C328.388 133.751 328.362 136.281 328.528 138.802C329.159 147.218 331.293 155.453 334.83 163.116Z" fill="#2C282C"/>
<path d="M513.622 109.439C511.37 109.438 509.169 110.104 507.296 111.354C505.423 112.604 503.964 114.382 503.102 116.461C502.24 118.541 502.015 120.83 502.455 123.038C502.895 125.246 503.981 127.273 505.574 128.864C507.168 130.455 509.198 131.537 511.407 131.973C513.616 132.41 515.905 132.182 517.984 131.317C520.063 130.452 521.838 128.99 523.086 127.116C524.333 125.242 524.996 123.04 524.991 120.788C524.984 117.778 523.784 114.892 521.653 112.765C519.522 110.638 516.634 109.442 513.622 109.439Z" fill="#2C282C"/>
<path d="M467.06 136.752C466.978 136.378 466.775 136.041 466.483 135.794C466.19 135.547 465.825 135.404 465.442 135.386C465.06 135.368 464.682 135.477 464.368 135.696C464.054 135.914 463.821 136.23 463.705 136.595C462.596 139.47 460.897 142.081 458.718 144.258C456.538 146.436 453.925 148.133 451.049 149.239C450.691 149.356 450.381 149.586 450.165 149.894C449.949 150.203 449.839 150.573 449.851 150.95C449.864 151.326 449.999 151.688 450.235 151.981C450.472 152.275 450.797 152.483 451.162 152.576C454.118 153.473 456.807 155.086 458.989 157.272C461.171 159.458 462.779 162.149 463.67 165.106C463.783 165.459 464.006 165.767 464.306 165.984C464.606 166.201 464.968 166.317 465.339 166.314C465.709 166.32 466.071 166.208 466.372 165.994C466.674 165.78 466.9 165.475 467.016 165.124C467.96 162.19 469.589 159.523 471.769 157.344C473.948 155.165 476.616 153.537 479.55 152.593C479.906 152.469 480.213 152.235 480.427 151.926C480.642 151.616 480.753 151.247 480.744 150.87C480.735 150.494 480.607 150.13 480.379 149.83C480.15 149.531 479.833 149.312 479.472 149.204C476.479 148.426 473.75 146.86 471.567 144.67C469.384 142.48 467.828 139.746 467.06 136.752Z" fill="#2C282C"/>
<path d="M446.547 76.088C458.359 80.0505 466.034 87.7236 470.015 99.5505C470.236 100.211 470.659 100.785 471.223 101.194C471.787 101.602 472.465 101.823 473.161 101.827C473.855 101.826 474.531 101.61 475.096 101.209C475.661 100.807 476.088 100.24 476.317 99.5852C480.437 87.8801 488.129 80.1896 499.846 76.0706C500.509 75.8336 501.08 75.3937 501.478 74.8133C501.877 74.2329 502.082 73.5416 502.064 72.8379C502.047 72.1342 501.808 71.4539 501.382 70.8938C500.955 70.3337 500.363 69.9224 499.689 69.7184C487.616 66.1121 479.985 58.4824 476.377 46.4036C476.182 45.74 475.784 45.1537 475.24 44.7258C474.697 44.2979 474.033 44.0496 473.342 44.0152C472.651 43.9809 471.966 44.1622 471.382 44.534C470.799 44.9059 470.345 45.4499 470.084 46.0908C468.004 51.4852 464.816 56.384 460.726 60.4715C456.636 64.559 451.735 67.7444 446.338 69.8226C445.707 70.0822 445.171 70.5283 444.801 71.1011C444.431 71.6739 444.245 72.3461 444.267 73.0277C444.29 73.7093 444.521 74.3676 444.928 74.9146C445.335 75.4615 445.9 75.8709 446.547 76.088Z" fill="#2C282C"/>
<path d="M498.733 371.22H445.339L488.398 351.859C492.245 350.118 495.246 346.924 496.743 342.976C498.24 339.028 498.112 334.648 496.386 330.795L457.081 243.454L440.21 205.949L384.043 81.0846C383.185 79.1763 381.96 77.4559 380.436 76.0215C378.913 74.5872 377.121 73.4672 375.164 72.7255C373.208 71.9838 371.124 71.635 369.032 71.6991C366.94 71.7631 364.882 72.2387 362.974 73.0987L300.288 101.28C298.263 102.185 296.453 103.509 294.977 105.164L273.022 12.2787C272.543 10.2417 271.667 8.31908 270.445 6.62088C269.222 4.92267 267.676 3.48225 265.896 2.38207C264.116 1.2819 262.136 0.543579 260.07 0.209384C258.004 -0.12481 255.892 -0.0483149 253.856 0.43449L203.617 12.2961C199.508 13.2742 195.955 15.8418 193.737 19.4356C191.52 23.0293 190.818 27.3557 191.787 31.4658L207.797 99.2463C206.078 98.6244 204.263 98.3039 202.435 98.2991H128.64C126.693 98.3036 124.763 98.6659 122.947 99.368V50.4009C122.942 45.9105 121.156 41.6053 117.98 38.4301C114.804 35.2549 110.498 33.4691 106.007 33.4645H39.0788C36.8519 33.4622 34.6463 33.8984 32.588 34.7483C30.5297 35.5982 28.659 36.8451 27.0827 38.4178C25.5064 39.9905 24.2553 41.8582 23.401 43.9143C22.5467 45.9703 22.1058 48.1745 22.1035 50.4009V362.018C22.1013 365.297 23.0591 368.505 24.8589 371.246H14.8892C11.0015 371.34 7.30461 372.95 4.58818 375.732C1.87175 378.514 0.351135 382.248 0.351135 386.136C0.351135 390.024 1.87175 393.758 4.58818 396.54C7.30461 399.322 11.0015 400.932 14.8892 401.026H498.733C502.621 400.932 506.318 399.322 509.034 396.54C511.751 393.758 513.271 390.024 513.271 386.136C513.271 382.248 511.751 378.514 509.034 375.732C506.318 372.95 502.621 371.34 498.733 371.246V371.22ZM352.631 349.052L345.364 318.351L338.924 291.109L306.503 153.966L348.467 247.234L365.338 284.73L404.261 371.246H328.102L340.784 368.257C344.898 367.275 348.456 364.702 350.676 361.102C352.897 357.502 353.6 353.169 352.631 349.052ZM449.841 252.317L487.042 334.992C487.663 336.368 487.712 337.934 487.179 339.347C486.647 340.759 485.575 341.903 484.2 342.526L421.514 370.725C420.134 371.341 418.566 371.385 417.154 370.848C415.741 370.31 414.599 369.235 413.978 367.857L376.777 285.165L377.646 284.756L449.841 252.317ZM301.496 113.784C301.761 113.085 302.161 112.444 302.674 111.9C303.187 111.355 303.803 110.918 304.486 110.613L367.181 82.4229C367.914 82.0944 368.707 81.9227 369.51 81.9188C370.2 81.9174 370.884 82.0441 371.527 82.2925C372.229 82.5553 372.871 82.9549 373.418 83.4681C373.964 83.9812 374.402 84.5977 374.708 85.2818L428.781 205.471L363.539 234.807L355.716 238.335L301.609 118.181C301.297 117.493 301.126 116.75 301.107 115.994C301.088 115.239 301.22 114.488 301.496 113.784ZM297.733 306.064L330.136 298.399L334.23 315.718L293.126 325.425L272.926 330.213L268.841 312.911L297.733 306.064ZM216.203 35.1416L252.822 26.4952C253.478 26.3362 254.159 26.3083 254.827 26.4132C255.494 26.5182 256.134 26.7538 256.709 27.1067C257.285 27.4595 257.786 27.9226 258.182 28.4694C258.578 29.0161 258.863 29.6357 259.019 30.2927L273.795 92.7463C273.95 93.4003 273.974 94.0783 273.867 94.7417C273.759 95.405 273.522 96.0406 273.168 96.6121C272.815 97.1836 272.352 97.6797 271.806 98.0721C271.26 98.4645 270.643 98.7454 269.988 98.8987L233.369 107.589C232.984 107.678 232.591 107.724 232.196 107.728C231.042 107.729 229.922 107.339 229.018 106.623C228.113 105.907 227.478 104.905 227.215 103.782L212.439 41.3287C212.278 40.6754 212.248 39.9967 212.35 39.3317C212.453 38.6667 212.686 38.0284 213.035 37.4535C213.385 36.8787 213.845 36.3785 214.388 35.9818C214.932 35.585 215.548 35.2995 216.203 35.1416ZM122.912 361.991V114.201C122.915 112.692 123.515 111.245 124.582 110.176C125.649 109.108 127.095 108.506 128.605 108.501H202.435C203.946 108.503 205.395 109.105 206.464 110.173C207.533 111.242 208.134 112.69 208.136 114.201V362.999C208.134 364.51 207.532 365.958 206.463 367.025C205.394 368.092 203.945 368.691 202.435 368.691H128.64C127.131 368.689 125.684 368.089 124.617 367.022C123.55 365.955 122.949 364.508 122.947 362.999L122.912 361.991ZM32.3426 112.029H112.673V122.857H32.3426V112.029ZM32.3426 133.084H112.673V157.155H32.3426V133.084ZM32.3426 287.476H112.673V298.295H32.3426V287.476ZM218.349 362.999V143.955L257.654 310.27L264.095 337.504L271.353 368.222C271.592 369.244 271.933 370.24 272.37 371.194H216.055C217.564 368.727 218.363 365.891 218.367 362.999H218.349Z" fill="#2C282C"/>
</svg>
